<?xml version="1.0" encoding="UTF-8"?>
<!-- Generator: visioncortex VTracer 0.6.2 -->
<svg version="1.1" xmlns="http://www.w3.org/2000/svg" width="1280" height="639">
<path d="M0 0 C3.30833585 1.83869662 5.51062938 4.10087641 7.5625 7.3125 C5.5825 10.2825 3.6025 13.2525 1.5625 16.3125 C-3.4375 15.3125 -3.4375 15.3125 -5.625 13.8125 C-9.7483008 11.61340624 -13.78778521 11.15676793 -18.4375 11.3125 C-21.95998006 12.56744462 -21.95998006 12.56744462 -24.4375 14.3125 C-24.4375 16.2925 -24.4375 18.2725 -24.4375 20.3125 C-20.1516104 22.29103161 -16.15033045 23.71612458 -11.53808594 24.69213867 C-4.57435297 26.17113946 1.78302449 27.64001722 6.5625 33.3125 C9.95983339 38.57446177 11.73059912 44.07866491 10.5625 50.3125 C8.69717164 56.54772683 6.14888785 60.72877949 0.5625 64.3125 C-6.27851674 67.67180643 -12.94396931 67.72238457 -20.4375 67.3125 C-21.654375 67.250625 -22.87125 67.18875 -24.125 67.125 C-28.02286529 66.16891984 -30.94141948 64.49210288 -34.32421875 62.37109375 C-36.63963188 61.01391697 -36.63963188 61.01391697 -40.4375 61.3125 C-41.4275 61.8075 -41.4275 61.8075 -42.4375 62.3125 C-44.58258586 62.57077492 -46.73389812 62.77800955 -48.88671875 62.9609375 C-50.22462985 63.08050032 -51.56251974 63.20030053 -52.90039062 63.3203125 C-54.9903858 63.5032506 -57.08051864 63.68376359 -59.17114258 63.859375 C-67.99335346 64.60775872 -76.50524819 65.82009463 -85.16772461 67.65722656 C-88.94228289 68.4136601 -92.53424833 68.80202311 -96.375 69 C-97.53902344 69.06574219 -98.70304687 69.13148438 -99.90234375 69.19921875 C-101.15724609 69.25529297 -101.15724609 69.25529297 -102.4375 69.3125 C-102.3125 67.0625 -102.3125 67.0625 -101.4375 64.3125 C-97.45752289 61.05400462 -93.34465092 59.37202125 -88.5 57.75 C-84.89528374 56.53246018 -81.3960376 55.29431716 -77.91015625 53.765625 C-65.25404912 48.46970616 -51.88394951 48.93364468 -38.4375 49.3125 C-37.9425 48.3225 -37.9425 48.3225 -37.4375 47.3125 C-36.7775 47.3125 -36.1175 47.3125 -35.4375 47.3125 C-35.4375 46.6525 -35.4375 45.9925 -35.4375 45.3125 C-33.7875 45.6425 -32.1375 45.9725 -30.4375 46.3125 C-30.1075 47.3025 -29.7775 48.2925 -29.4375 49.3125 C-27.65521064 50.45459817 -27.65521064 50.45459817 -25.4375 51.3125 C-24.68210937 51.65796875 -23.92671875 52.0034375 -23.1484375 52.359375 C-20.18940191 53.39972757 -17.93768875 53.54735134 -14.8125 53.5 C-13.40097656 53.49033203 -13.40097656 53.49033203 -11.9609375 53.48046875 C-9.31149088 53.41078658 -9.31149088 53.41078658 -6.4375 52.3125 C-6.1590625 50.4253125 -6.1590625 50.4253125 -5.875 48.5 C-5.77058594 47.79230469 -5.66617188 47.08460938 -5.55859375 46.35546875 C-5.29845201 44.1099658 -5.29845201 44.1099658 -6.4375 41.3125 C-9.31275023 40.5256209 -12.07616215 39.9051337 -15 39.375 C-23.94314572 37.74164906 -31.36288936 35.45910075 -37.4375 28.3125 C-40.8460233 23.00768557 -39.99901408 16.34877641 -39.4375 10.3125 C-36.87968804 4.60661178 -32.77541851 2.02773354 -27.32421875 -0.7734375 C-19.38242577 -3.2881595 -7.70918395 -3.18956187 0 0 Z " fill="#000405" transform="translate(451.4375,225.6875)"/>
<path d="M0 0 C4.97306516 0.49730652 8.63799813 1.55302334 13 4 C12.41196203 7.02419525 11.77321882 10.01758453 11 13 C12.0725 13.45375 13.145 13.9075 14.25 14.375 C16.88062317 15.50088537 19.46000396 16.67920206 22 18 C22 17.01 22 16.02 22 15 C23.32 15 24.64 15 26 15 C29.50261675 20.80886647 29.61653485 28.86325003 28.63671875 35.4375 C28 37.3125 28 37.3125 26 40 C22.3125 40.9375 22.3125 40.9375 19 41 C19.04640625 41.61488281 19.0928125 42.22976562 19.140625 42.86328125 C19.19476562 44.07564453 19.19476562 44.07564453 19.25 45.3125 C19.29640625 46.11300781 19.3428125 46.91351563 19.390625 47.73828125 C19 50 19 50 17.37890625 51.7421875 C11.88663348 54.64614782 3.94208595 54.77448614 -2.0625 53.3125 C-5.11926064 51.94671333 -6.86760964 50.55886844 -9 48 C-8.67 47.67 -8.34 47.34 -8 47 C-10.64 46.67 -13.28 46.34 -16 46 C-16 55.24 -16 64.48 -16 74 C-19.465 74.495 -19.465 74.495 -23 75 C-25 73 -25 73 -25.22705078 70.29443359 C-25.21134033 68.61341553 -25.21134033 68.61341553 -25.1953125 66.8984375 C-25.18886719 65.68671875 -25.18242188 64.475 -25.17578125 63.2265625 C-25.15902344 61.95554688 -25.14226563 60.68453125 -25.125 59.375 C-25.11597656 58.09625 -25.10695313 56.8175 -25.09765625 55.5 C-25.07402303 52.33314833 -25.04107629 49.16666576 -25 46 C-25.63808594 46.01160156 -26.27617188 46.02320313 -26.93359375 46.03515625 C-27.75988281 46.04417969 -28.58617187 46.05320313 -29.4375 46.0625 C-30.26121094 46.07410156 -31.08492187 46.08570313 -31.93359375 46.09765625 C-34 46 -34 46 -35 45 C-35.25 42.5625 -35.25 42.5625 -35 40 C-31.59568053 37.73045369 -29.83475798 37.63450051 -25.8125 37.375 C-24.72582031 37.30023438 -23.63914062 37.22546875 -22.51953125 37.1484375 C-21.68808594 37.09945312 -20.85664062 37.05046875 -20 37 C-19.87753906 36.25363281 -19.75507812 35.50726563 -19.62890625 34.73828125 C-18.75854957 30.94871583 -17.01362996 28.31274607 -15 25 C-14.34 25 -13.68 25 -13 25 C-12.7628125 24.24332031 -12.525625 23.48664063 -12.28125 22.70703125 C-10.78267392 19.5408324 -9.43677224 18.53251763 -6.5 16.6875 C-5.7059375 16.17574219 -4.911875 15.66398438 -4.09375 15.13671875 C-2 14 -2 14 0 14 C0 13.34 0 12.68 0 12 C-1.32 11.34 -2.64 10.68 -4 10 C-3.29445932 6.33118845 -1.72264494 3.29549466 0 0 Z " fill="#000405" transform="translate(666,188)"/>
<path d="M0 0 C2.31662669 1.20584085 4.56356724 2.43153125 6.8125 3.75 C7.42270996 4.10271973 8.03291992 4.45543945 8.66162109 4.81884766 C12.93101422 7.31017207 17.07540061 9.94745801 21.1328125 12.7734375 C23.02783693 14.01828618 24.95405018 15.0270372 27 16 C27 17.65 27 19.3 27 21 C25.92878906 21.4846875 24.85757813 21.969375 23.75390625 22.46875 C22.35600309 23.14424683 20.95890856 23.82141887 19.5625 24.5 C18.85544922 24.81453125 18.14839844 25.1290625 17.41992188 25.453125 C13.42584627 27.37221413 13.42584627 27.37221413 11.30419922 31.06640625 C10.9532013 33.52426888 10.9532013 33.52426888 11 37 C2.33481311 41.33259345 -8.66030019 41.31824692 -18 39 C-19.485 38.505 -19.485 38.505 -21 38 C-21.33 34.37 -21.66 30.74 -22 27 C-23.32 26.67 -24.64 26.34 -26 26 C-29.03924017 24.74706821 -32.0078662 23.364061 -35 22 C-35 26.62 -35 31.24 -35 36 C-35.99 36 -36.98 36 -38 36 C-39.16968953 33.66062093 -39.13364221 32.22630632 -39.125 29.625 C-39.12886719 28.46871094 -39.12886719 28.46871094 -39.1328125 27.2890625 C-39.00255094 25.04396625 -38.59302028 23.16327115 -38 21 C-37.89429688 20.15308594 -37.78859375 19.30617187 -37.6796875 18.43359375 C-36.81605503 15.34139245 -35.82888681 14.72235934 -33.125 13.0625 C-32.3103125 12.55847656 -31.495625 12.05445313 -30.65625 11.53515625 C-27.08280221 9.46991363 -23.49079455 7.45657609 -19.83984375 5.53125 C-17.88691204 4.47822492 -15.96291689 3.37029308 -14.06640625 2.21875 C-13.11636719 1.6515625 -12.16632813 1.084375 -11.1875 0.5 C-10.33542969 -0.0259375 -9.48335938 -0.551875 -8.60546875 -1.09375 C-5.00291699 -2.34681148 -3.44593186 -1.54502738 0 0 Z " fill="#000405" transform="translate(354,225)"/>
<path d="M0 0 C4.88697149 1.42338975 6.11154011 3.66543054 8.55859375 7.9296875 C8.95626953 8.56777344 9.35394531 9.20585937 9.76367188 9.86328125 C11.52766294 12.77189302 12.62109375 14.59906941 12.62109375 18.0546875 C13.28109375 18.0546875 13.94109375 18.0546875 14.62109375 18.0546875 C14.65847656 16.92289063 14.69585938 15.79109375 14.734375 14.625 C14.80002457 13.14319545 14.86647226 11.66142611 14.93359375 10.1796875 C14.95615234 9.43332031 14.97871094 8.68695313 15.00195312 7.91796875 C15.0992132 5.9550835 15.35151669 4.00140428 15.62109375 2.0546875 C18.62109375 0.0546875 18.62109375 0.0546875 21.30859375 0.4296875 C22.07171875 0.6359375 22.83484375 0.8421875 23.62109375 1.0546875 C23.64574473 6.02091099 23.66393024 10.98709916 23.67602539 15.95336914 C23.68106565 17.64413066 23.6878978 19.33488779 23.6965332 21.02563477 C23.70861232 23.45069457 23.71432498 25.87569694 23.71875 28.30078125 C23.72391129 29.06120224 23.72907257 29.82162323 23.73439026 30.60508728 C23.73458613 32.4220132 23.68306652 34.23881877 23.62109375 36.0546875 C22.62109375 37.0546875 22.62109375 37.0546875 19.74609375 37.3046875 C16.62109375 37.0546875 16.62109375 37.0546875 14.74609375 35.7421875 C13.62109375 34.0546875 13.62109375 34.0546875 13.62109375 31.0546875 C12.96109375 31.0546875 12.30109375 31.0546875 11.62109375 31.0546875 C11.22277344 30.30703125 10.82445312 29.559375 10.4140625 28.7890625 C9.88425781 27.80421875 9.35445312 26.819375 8.80859375 25.8046875 C8.28652344 24.83015625 7.76445313 23.855625 7.2265625 22.8515625 C5.83144187 20.42113338 4.35913414 18.24681051 2.62109375 16.0546875 C2.5960376 16.65531006 2.57098145 17.25593262 2.54516602 17.87475586 C2.42954095 20.58080187 2.30666439 23.28647033 2.18359375 25.9921875 C2.12461914 27.41047852 2.12461914 27.41047852 2.06445312 28.85742188 C2.02255859 29.75654297 1.98066406 30.65566406 1.9375 31.58203125 C1.88251343 32.83101196 1.88251343 32.83101196 1.82641602 34.10522461 C1.62109375 36.0546875 1.62109375 36.0546875 0.62109375 37.0546875 C-1.71835361 36.76738695 -4.05282055 36.43531971 -6.37890625 36.0546875 C-6.4529592 31.24922071 -6.50746122 26.4440846 -6.54370117 21.63818359 C-6.55880536 20.00270809 -6.57929014 18.36727321 -6.60522461 16.73193359 C-6.6415377 14.38368726 -6.65861557 12.03597545 -6.671875 9.6875 C-6.68735886 8.95411407 -6.70284271 8.22072815 -6.71879578 7.46511841 C-6.71948242 5.40283203 -6.71948242 5.40283203 -6.37890625 2.0546875 C-3.37890625 0.0546875 -3.37890625 0.0546875 0 0 Z " fill="#000405" transform="translate(603.37890625,225.9453125)"/>
<path d="M0 0 C8.89104794 -1.30112897 17.5131992 0.00879947 25 5 C25 5.66 25 6.32 25 7 C25.66 7 26.32 7 27 7 C29.95092717 13.2441619 30.56933293 21.56703895 28.2421875 28.140625 C24.97288162 33.23765307 20.6754632 35.44382461 15 37 C12.20124324 37.22560634 9.43039301 37.19094956 6.625 37.125 C5.52091797 37.11146484 5.52091797 37.11146484 4.39453125 37.09765625 C2.5962112 37.07430144 0.79806089 37.03843836 -1 37 C-3.24578046 32.50843908 -2.18584432 26.34142092 -2.18530273 21.34204102 C-2.1874881 19.07484134 -2.20564493 16.80812911 -2.22460938 14.54101562 C-2.22754362 13.10156417 -2.22952821 11.66211039 -2.23046875 10.22265625 C-2.23457764 8.91047119 -2.23868652 7.59828613 -2.24291992 6.24633789 C-2 3 -2 3 0 0 Z M7 8 C7 14.93 7 21.86 7 29 C10.3 29 13.6 29 17 29 C17 28.34 17 27.68 17 27 C17.66 27 18.32 27 19 27 C21.58589108 20.91555039 21.07530998 16.22592993 19 10 C15.35284977 7.16794971 15.35284977 7.16794971 7 8 Z " fill="#000405" transform="translate(533,226)"/>
<path d="M0 0 C1.27387573 0.01135986 1.27387573 0.01135986 2.57348633 0.02294922 C16.51644433 0.37975976 41.13838927 5.26338927 51.3125 15.4375 C51.35313832 17.10367115 51.355221 18.77138095 51.3125 20.4375 C49.20801062 20.29640014 47.1039123 20.14945825 45 20 C43.82824219 19.91878906 42.65648437 19.83757812 41.44921875 19.75390625 C38.3125 19.4375 38.3125 19.4375 35.3125 18.4375 C33.48233448 18.23904832 31.64820086 18.07567103 29.8125 17.9375 C26.70656158 17.70371969 24.28029278 17.42676426 21.3125 16.4375 C19.25283058 16.25601864 17.18937012 16.11640292 15.125 16 C12.52022607 15.81839766 9.91625529 15.63258164 7.3125 15.4375 C6.60109863 15.38513184 5.88969727 15.33276367 5.15673828 15.27880859 C2.99713558 15.10741155 0.84323119 14.90175729 -1.3125 14.6875 C-2.62476563 14.56890625 -3.93703125 14.4503125 -5.2890625 14.328125 C-9.37417988 13.25754251 -10.55787473 12.02480771 -12.6875 8.4375 C-12.61814193 5.52446115 -12.20556625 4.07592604 -10.37182617 1.81616211 C-7.41497906 -0.60408947 -3.65546396 -0.04531121 0 0 Z " fill="#000405" transform="translate(296.6875,274.5625)"/>
<path d="M0 0 C1.3303125 -0.00193359 1.3303125 -0.00193359 2.6875 -0.00390625 C3.615625 -0.00003906 4.54375 0.00382813 5.5 0.0078125 C6.8921875 0.00201172 6.8921875 0.00201172 8.3125 -0.00390625 C9.199375 -0.00261719 10.08625 -0.00132812 11 0 C11.8146875 0.00112793 12.629375 0.00225586 13.46875 0.00341797 C15.5 0.1328125 15.5 0.1328125 17.5 1.1328125 C17.5 3.4428125 17.5 5.7528125 17.5 8.1328125 C12.22 8.1328125 6.94 8.1328125 1.5 8.1328125 C1.5 10.1128125 1.5 12.0928125 1.5 14.1328125 C5.79 14.1328125 10.08 14.1328125 14.5 14.1328125 C15.16 15.7828125 15.82 17.4328125 16.5 19.1328125 C15.38671875 20.62109375 15.38671875 20.62109375 13.5 22.1328125 C10.58203125 22.42578125 10.58203125 22.42578125 7.3125 22.3203125 C6.22582031 22.29324219 5.13914062 22.26617187 4.01953125 22.23828125 C2.77236328 22.18607422 2.77236328 22.18607422 1.5 22.1328125 C1.5 24.4428125 1.5 26.7528125 1.5 29.1328125 C6.78 29.1328125 12.06 29.1328125 17.5 29.1328125 C18.5 34.1328125 18.5 34.1328125 17.5 37.1328125 C13.68751574 37.16168486 9.8750593 37.17956742 6.0625 37.1953125 C4.97388672 37.20369141 3.88527344 37.21207031 2.76367188 37.22070312 C1.72919922 37.22392578 0.69472656 37.22714844 -0.37109375 37.23046875 C-1.32943115 37.23570557 -2.28776855 37.24094238 -3.27514648 37.24633789 C-5.5 37.1328125 -5.5 37.1328125 -6.5 36.1328125 C-6.58851529 33.53921928 -6.61525945 30.97241559 -6.59765625 28.37890625 C-6.59553383 27.21573631 -6.59553383 27.21573631 -6.59336853 26.02906799 C-6.58775345 23.54277756 -6.57519846 21.0565759 -6.5625 18.5703125 C-6.55748694 16.88867317 -6.5529237 15.20703244 -6.54882812 13.52539062 C-6.53777913 9.39449684 -6.52050445 5.26366974 -6.5 1.1328125 C-4.12384014 -0.05526743 -2.6488258 0.00366728 0 0 Z " fill="#000405" transform="translate(574.5,225.8671875)"/>
<path d="M0 0 C2.375 0.6875 2.375 0.6875 3.375 1.6875 C3.52056418 3.44308658 3.60223562 5.20406108 3.65625 6.96484375 C3.69363281 8.03541016 3.73101562 9.10597656 3.76953125 10.20898438 C3.80433594 11.33626953 3.83914063 12.46355469 3.875 13.625 C3.94370307 15.84258247 4.01641789 18.06004543 4.09375 20.27734375 C4.12404297 21.26597412 4.15433594 22.25460449 4.18554688 23.27319336 C4.22364981 25.69802587 4.22364981 25.69802587 5.375 27.6875 C7.50076782 28.15401207 7.50076782 28.15401207 9.9375 28.3125 C10.76378906 28.38726562 11.59007812 28.46203125 12.44140625 28.5390625 C13.07949219 28.58804688 13.71757813 28.63703125 14.375 28.6875 C15.41214522 25.57606433 15.57531861 23.19281904 15.69140625 19.92578125 C15.73330078 18.80751953 15.77519531 17.68925781 15.81835938 16.53710938 C15.85767578 15.36986328 15.89699219 14.20261719 15.9375 13 C15.98068359 11.82115234 16.02386719 10.64230469 16.06835938 9.42773438 C16.17451176 6.51444117 16.27656242 3.60106243 16.375 0.6875 C19.25 0.0625 19.25 0.0625 22.375 -0.3125 C26.06520395 3.37770395 24.74462938 9.45356188 24.75 14.4375 C24.77449219 15.61828125 24.79898438 16.7990625 24.82421875 18.015625 C24.86154146 29.06314669 24.86154146 29.06314669 20.375 33.6875 C16.6815448 36.5777656 13.95508764 37.07630043 9.3125 37 C8.29027344 36.99613281 7.26804687 36.99226563 6.21484375 36.98828125 C3.43367366 36.6937144 1.74885534 36.11636736 -0.625 34.6875 C-0.625 34.0275 -0.625 33.3675 -0.625 32.6875 C-1.285 32.6875 -1.945 32.6875 -2.625 32.6875 C-6.07919171 26.29998676 -6.07717841 20.5397289 -6 13.375 C-6.01160156 12.27865234 -6.02320313 11.18230469 -6.03515625 10.05273438 C-6.03128906 9.00794922 -6.02742188 7.96316406 -6.0234375 6.88671875 C-6.02005371 5.93627686 -6.01666992 4.98583496 -6.01318359 4.0065918 C-5.88508301 3.2412915 -5.75698242 2.47599121 -5.625 1.6875 C-2.625 -0.3125 -2.625 -0.3125 0 0 Z " fill="#000405" transform="translate(499.625,226.3125)"/>
<path d="M0 0 C1.11568359 -0.00128906 2.23136719 -0.00257813 3.38085938 -0.00390625 C5.14333008 0.00189453 5.14333008 0.00189453 6.94140625 0.0078125 C8.11251953 0.00394531 9.28363281 0.00007812 10.49023438 -0.00390625 C12.16569336 -0.00197266 12.16569336 -0.00197266 13.875 0 C14.9055249 0.00112793 15.9360498 0.00225586 16.99780273 0.00341797 C19.50390625 0.1328125 19.50390625 0.1328125 21.50390625 1.1328125 C21.54644981 3.13235996 21.54471408 5.13322886 21.50390625 7.1328125 C20.50390625 8.1328125 20.50390625 8.1328125 18.4375 8.23046875 C17.61378906 8.21886719 16.79007812 8.20726562 15.94140625 8.1953125 C15.11511719 8.18628906 14.28882813 8.17726562 13.4375 8.16796875 C12.79941406 8.15636719 12.16132813 8.14476562 11.50390625 8.1328125 C11.51176147 9.34396729 11.51176147 9.34396729 11.51977539 10.57958984 C11.54050554 14.22232288 11.55355374 17.86504352 11.56640625 21.5078125 C11.57478516 22.77882812 11.58316406 24.04984375 11.59179688 25.359375 C11.59663086 27.17695313 11.59663086 27.17695313 11.6015625 29.03125 C11.60941772 30.71226807 11.60941772 30.71226807 11.61743164 32.42724609 C11.50390625 35.1328125 11.50390625 35.1328125 10.50390625 37.1328125 C7.62890625 37.2578125 7.62890625 37.2578125 4.50390625 37.1328125 C2.50390625 35.1328125 2.50390625 35.1328125 2.27685547 32.42724609 C2.29256592 30.74622803 2.29256592 30.74622803 2.30859375 29.03125 C2.31503906 27.81953125 2.32148438 26.6078125 2.328125 25.359375 C2.34488281 24.08835938 2.36164063 22.81734375 2.37890625 21.5078125 C2.38792969 20.2290625 2.39695312 18.9503125 2.40625 17.6328125 C2.42988322 14.46596083 2.46282996 11.29947826 2.50390625 8.1328125 C-0.46609375 8.1328125 -3.43609375 8.1328125 -6.49609375 8.1328125 C-6.53851098 5.79986475 -6.53702312 3.46578683 -6.49609375 1.1328125 C-4.75536171 -0.60791954 -2.3651774 0.00259157 0 0 Z " fill="#000405" transform="translate(469.49609375,225.8671875)"/>
<path d="M0 0 C1.134375 0.020625 2.26875 0.04125 3.4375 0.0625 C4.7575 3.6925 6.0775 7.3225 7.4375 11.0625 C9.0875 7.4325 10.7375 3.8025 12.4375 0.0625 C14.4175 0.0625 16.3975 0.0625 18.4375 0.0625 C19.4375 1.0625 19.4375 1.0625 19.55102539 3.01196289 C19.54578857 3.8446167 19.54055176 4.67727051 19.53515625 5.53515625 C19.53193359 6.43427734 19.52871094 7.33339844 19.52539062 8.25976562 C19.51701172 9.20529297 19.50863281 10.15082031 19.5 11.125 C19.49548828 12.07439453 19.49097656 13.02378906 19.48632812 14.00195312 C19.4745011 16.35553065 19.45802025 18.70898477 19.4375 21.0625 C17.7875 21.3925 16.1375 21.7225 14.4375 22.0625 C13.7775 20.0825 13.1175 18.1025 12.4375 16.0625 C12.19 16.866875 11.9425 17.67125 11.6875 18.5 C10.4375 21.0625 10.4375 21.0625 8.4375 21.9375 C6.4375 22.0625 6.4375 22.0625 4.4375 21.0625 C3.71590576 19.41886866 3.04398579 17.75199614 2.4375 16.0625 C1.7775 18.0425 1.1175 20.0225 0.4375 22.0625 C-3.4375 21.1875 -3.4375 21.1875 -4.5625 20.0625 C-4.66110131 18.65901265 -4.69328937 17.25069523 -4.6953125 15.84375 C-4.69660156 14.99425781 -4.69789063 14.14476562 -4.69921875 13.26953125 C-4.69535156 12.37621094 -4.69148438 11.48289062 -4.6875 10.5625 C-4.69136719 9.66917969 -4.69523437 8.77585937 -4.69921875 7.85546875 C-4.69792969 7.00597656 -4.69664062 6.15648437 -4.6953125 5.28125 C-4.69418457 4.49685547 -4.69305664 3.71246094 -4.69189453 2.90429688 C-4.45193596 -0.51126431 -3.53803503 0.06207079 0 0 Z " fill="#000405" transform="translate(516.5625,268.9375)"/>
<path d="M0 0 C3.125 0.375 3.125 0.375 4.875 2.5 C6.14442108 5.41966848 7.20381555 8.32800529 8.125 11.375 C9.775 7.745 11.425 4.115 13.125 0.375 C15.105 0.375 17.085 0.375 19.125 0.375 C20.125 1.375 20.125 1.375 20.25 5.25 C20.19778452 10.65430224 19.68728595 16.00316106 19.125 21.375 C17.805 21.705 16.485 22.035 15.125 22.375 C14.465 20.395 13.805 18.415 13.125 16.375 C12.8775 17.179375 12.63 17.98375 12.375 18.8125 C11.125 21.375 11.125 21.375 9.125 22.25 C7.125 22.375 7.125 22.375 5.125 21.375 C4.40340576 19.73136866 3.73148579 18.06449614 3.125 16.375 C2.795 18.025 2.465 19.675 2.125 21.375 C0.25 22 0.25 22 -1.875 22.375 C-3.875 20.375 -3.875 20.375 -4.11791992 18.41967773 C-4.11381104 17.64052002 -4.10970215 16.8613623 -4.10546875 16.05859375 C-4.10353516 15.21232422 -4.10160156 14.36605469 -4.09960938 13.49414062 C-4.08736328 12.60919922 -4.07511719 11.72425781 -4.0625 10.8125 C-4.06185547 9.92369141 -4.06121094 9.03488281 -4.06054688 8.11914062 C-4.00839832 0.52283456 -4.00839832 0.52283456 0 0 Z " fill="#000405" transform="translate(542.875,268.625)"/>
<path d="M0 0 C1.9375 1.5 1.9375 1.5 3 3.875 C2.9375 6.5 2.9375 6.5 1.328125 8.546875 C-1.54191808 10.89168144 -3.78187278 11.50469237 -7.375 12.375 C-16.36914395 14.75276219 -25.07269533 17.91620566 -33.3515625 22.203125 C-36.0625 23.5 -36.0625 23.5 -38.4375 23.1875 C-38.97375 22.960625 -39.51 22.73375 -40.0625 22.5 C-39.75524179 19.47521364 -39.07873614 18.5153831 -36.83203125 16.38671875 C-12.13484789 -1.98119966 -12.13484789 -1.98119966 0 0 Z " fill="#000405" transform="translate(389.0625,263.5)"/>
<path d="M0 0 C1.22396484 0.38671875 1.22396484 0.38671875 2.47265625 0.78125 C3.61927734 1.13703125 3.61927734 1.13703125 4.7890625 1.5 C12.74110751 4.32972277 19.51986919 9.09783817 26.47265625 13.78125 C27.46265625 14.44125 28.45265625 15.10125 29.47265625 15.78125 C29.47265625 16.44125 29.47265625 17.10125 29.47265625 17.78125 C30.13265625 17.78125 30.79265625 17.78125 31.47265625 17.78125 C30.97765625 20.25625 30.97765625 20.25625 30.47265625 22.78125 C24.02050581 21.1365842 24.02050581 21.1365842 21.3828125 19.42578125 C17.1709695 17.04566594 12.69534489 15.74357042 8.09765625 14.28125 C-5.0859476 10.05289526 -5.0859476 10.05289526 -9.52734375 7.78125 C-10.46484375 4.59375 -10.46484375 4.59375 -10.52734375 1.78125 C-7.1610237 -2.02415528 -4.46171362 -1.21880957 0 0 Z " fill="#000405" transform="translate(316.52734375,264.21875)"/>
<path d="M0 0 C3.58271776 -0.1743959 7.16434602 -0.28087658 10.75 -0.375 C11.76578125 -0.42527344 12.7815625 -0.47554688 13.828125 -0.52734375 C21.21161488 -0.67307052 21.21161488 -0.67307052 23.59570312 1.36230469 C24.703125 3.0234375 24.703125 3.0234375 26 6 C26.556875 5.01 27.11375 4.02 27.6875 3 C30 0 30 0 32.75 -0.375 C33.86375 -0.189375 33.86375 -0.189375 35 0 C34.58006245 3.35950041 33.59843232 5.87624933 32 8.8125 C29.84516975 12.91136189 29.32843935 16.40184909 29 21 C27.34385343 21.38218767 25.67542976 21.71395102 24 22 C22.49085448 20.49085448 22.85102557 19.04099677 22.75 16.9375 C22.25312216 11.68238526 20.08850607 8.1825894 17 4 C16.67 4.33 16.34 4.66 16 5 C14.35 5 12.7 5 11 5 C11 10.28 11 15.56 11 21 C9.35 21.33 7.7 21.66 6 22 C5 21 5 21 4.90234375 17.40234375 C4.9090178 15.91403133 4.92097817 14.42573568 4.9375 12.9375 C4.94201172 12.17888672 4.94652344 11.42027344 4.95117188 10.63867188 C4.9629932 8.75908129 4.98092922 6.87953101 5 5 C3.35 5 1.7 5 0 5 C0 3.35 0 1.7 0 0 Z " fill="#000405" transform="translate(619,269)"/>
<path d="M0 0 C1.4540625 0.0309375 1.4540625 0.0309375 2.9375 0.0625 C3.2675 1.3825 3.5975 2.7025 3.9375 4.0625 C4.5975 4.0625 5.2575 4.0625 5.9375 4.0625 C7.5625 6.5625 7.5625 6.5625 8.9375 9.0625 C9.2675 6.0925 9.5975 3.1225 9.9375 0.0625 C11.5875 0.0625 13.2375 0.0625 14.9375 0.0625 C14.9375 6.9925 14.9375 13.9225 14.9375 21.0625 C13.6175 21.3925 12.2975 21.7225 10.9375 22.0625 C7.46137342 19.34677611 5.28749035 15.75534199 2.9375 12.0625 C2.6075 15.0325 2.2775 18.0025 1.9375 21.0625 C-2.0625 22.0625 -2.0625 22.0625 -4.0625 21.0625 C-4.09138146 17.75001813 -4.10925799 14.43756833 -4.125 11.125 C-4.13337891 10.17947266 -4.14175781 9.23394531 -4.15039062 8.25976562 C-4.15361328 7.36064453 -4.15683594 6.46152344 -4.16015625 5.53515625 C-4.16539307 4.70250244 -4.17062988 3.86984863 -4.17602539 3.01196289 C-3.98525275 -0.26399306 -3.34296677 0.06822381 0 0 Z " fill="#000405" transform="translate(592.0625,268.9375)"/>
<path d="M0 0 C2.73981828 1.68604202 3.70115352 2.92705812 4.5625 6.01953125 C5.46795544 11.556014 4.96183189 15.22285178 2 20 C-0.625 22.125 -0.625 22.125 -4 23 C-8.74578821 22.40779053 -12.04952083 21.14616606 -15.125 17.4375 C-16.31882211 12.74748456 -16.19845048 8.68923914 -15 4 C-11.02073306 -1.43833149 -6.23366254 -1.5709835 0 0 Z M-9 5 C-10.11445498 7.22890995 -10.16480286 8.53055106 -10.1875 11 C-10.20167969 11.70125 -10.21585937 12.4025 -10.23046875 13.125 C-10.16512323 15.24524938 -10.16512323 15.24524938 -8 17 C-5.5 17.41666667 -5.5 17.41666667 -3 17 C-0.76448241 13.64672361 -0.82716472 13.09256343 -1.375 9.3125 C-1.48585938 8.50425781 -1.59671875 7.69601562 -1.7109375 6.86328125 C-1.80632812 6.24839844 -1.90171875 5.63351562 -2 5 C-4.31 5 -6.62 5 -9 5 Z " fill="#000405" transform="translate(505,269)"/>
<path d="M0 0 C1.65 0.33 3.3 0.66 5 1 C5.33 5.95 5.66 10.9 6 16 C7.98 16 9.96 16 12 16 C12 10.72 12 5.44 12 0 C13.65 0 15.3 0 17 0 C18.963013 1.963013 18.22987489 5.57839194 18.25 8.25 C18.270625 8.91902344 18.29125 9.58804687 18.3125 10.27734375 C18.34733633 14.71026617 17.78458098 17.51927378 15 21 C10.69788754 22.98559037 8.74155976 23.23097763 4.1875 21.8125 C1 20 1 20 -1 17 C-1.16856854 14.25147572 -1.2333134 11.61898141 -1.1875 8.875 C-1.18685547 8.13378906 -1.18621094 7.39257812 -1.18554688 6.62890625 C-1.14039459 1.14039459 -1.14039459 1.14039459 0 0 Z " fill="#000405" transform="translate(567,269)"/>
<path d="M0 0 C2 2.0625 2 2.0625 3 4 C2.01 5.485 2.01 5.485 1 7 C0.01 7 -0.98 7 -2 7 C-2 6.34 -2 5.68 -2 5 C-4.31 5.33 -6.62 5.66 -9 6 C-9 8.97 -9 11.94 -9 15 C-5.52852158 15.74957157 -5.52852158 15.74957157 -2 16 C-1.67 15.01 -1.34 14.02 -1 13 C0.32 13.66 1.64 14.32 3 15 C2.7041325 17.86005251 2.15920836 18.85571743 0 20.8125 C-4.10353079 22.43681427 -7.77312547 22.25064827 -12 21 C-14.44212404 19.04853102 -14.98401251 18.04796248 -16 15 C-16.41622299 10.72571011 -16.43314233 7.07145734 -14.8125 3.0625 C-10.49300704 -1.85278509 -5.94193414 -1.34172706 0 0 Z " fill="#000405" transform="translate(485,269)"/>
<path d="M0 0 C1.1875 1.5625 1.1875 1.5625 1.1875 3.5625 C1.8475 3.5625 2.5075 3.5625 3.1875 3.5625 C3.8475 5.2125 4.5075 6.8625 5.1875 8.5625 C3.36281681 10.99541092 2.4308457 11.52464622 -0.625 12 C-4.63040465 11.45023858 -6.70032394 10.10882587 -9.8125 7.5625 C-11.1875 5.3125 -11.1875 5.3125 -11.8125 3.5625 C-12.4725 3.5625 -13.1325 3.5625 -13.8125 3.5625 C-13.125 1.125 -13.125 1.125 -11.8125 -1.4375 C-7.63799903 -3.01704091 -3.55044788 -2.81587246 0 0 Z " fill="#000405" transform="translate(695.8125,280.4375)"/>
<path d="M0 0 C1 1 1 1 1.0625 3.5625 C1.041875 4.366875 1.02125 5.17125 1 6 C-0.98 6.99 -0.98 6.99 -3 8 C-3 8.66 -3 9.32 -3 10 C-3.66 10 -4.32 10 -5 10 C-5 10.66 -5 11.32 -5 12 C-6.258125 12.185625 -7.51625 12.37125 -8.8125 12.5625 C-9.87404297 12.71912109 -9.87404297 12.71912109 -10.95703125 12.87890625 C-13 13 -13 13 -16 12 C-16.4375 9.9375 -16.4375 9.9375 -16 7 C-11.87526676 0.72210413 -7.39634995 -1.39673561 0 0 Z " fill="#000405" transform="translate(675,280)"/>
<path d="M0 0 C1.32 0 2.64 0 4 0 C5.49368864 2.98737728 5.18437999 6.03960907 5.1875 9.3125 C5.20167969 10.62863281 5.21585938 11.94476563 5.23046875 13.30078125 C5.01736646 16.72125367 4.49124982 18.95266341 3 22 C2.01 22 1.02 22 0 22 C-1.16581918 19.66836164 -1.12905609 18.27846518 -1.1328125 15.68359375 C-1.13410156 14.83732422 -1.13539063 13.99105469 -1.13671875 13.11914062 C-1.13285156 12.23419922 -1.12898437 11.34925781 -1.125 10.4375 C-1.12886719 9.54869141 -1.13273438 8.65988281 -1.13671875 7.74414062 C-1.13542969 6.89916016 -1.13414062 6.05417969 -1.1328125 5.18359375 C-1.13168457 4.40556396 -1.13055664 3.62753418 -1.12939453 2.82592773 C-1 1 -1 1 0 0 Z " fill="#000405" transform="translate(612,269)"/>
</svg>
